%TF.GenerationSoftware,KiCad,Pcbnew,5.0.2-bee76a0~70~ubuntu18.04.1*%
%TF.CreationDate,2019-04-07T12:31:35-04:00*%
%TF.ProjectId,pcbnameplate,7063626e-616d-4657-906c-6174652e6b69,rev?*%
%TF.SameCoordinates,Original*%
%TF.FileFunction,Soldermask,Bot*%
%TF.FilePolarity,Negative*%
%FSLAX46Y46*%
G04 Gerber Fmt 4.6, Leading zero omitted, Abs format (unit mm)*
G04 Created by KiCad (PCBNEW 5.0.2-bee76a0~70~ubuntu18.04.1) date Sun 07 Apr 2019 12:31:35 PM EDT*
%MOMM*%
%LPD*%
G01*
G04 APERTURE LIST*
%ADD10C,0.200000*%
%ADD11C,0.100000*%
G04 APERTURE END LIST*
D10*
X36677600Y-138734800D02*
X36677600Y-88734800D01*
X316677600Y-138734800D02*
X316677600Y-88734800D01*
X36677600Y-88734800D02*
G75*
G02X316677600Y-88734800I140000000J-730000000D01*
G01*
X36677600Y-138734800D02*
X316677600Y-138734800D01*
D11*
G36*
X50602766Y-133268495D02*
X50759858Y-133316148D01*
X50904630Y-133393531D01*
X51031528Y-133497672D01*
X51135669Y-133624570D01*
X51213052Y-133769342D01*
X51260705Y-133926434D01*
X51277400Y-134095940D01*
X51277400Y-136009660D01*
X51260705Y-136179166D01*
X51213052Y-136336258D01*
X51135669Y-136481030D01*
X51031528Y-136607928D01*
X50904630Y-136712069D01*
X50759858Y-136789452D01*
X50602766Y-136837105D01*
X50433260Y-136853800D01*
X48519540Y-136853800D01*
X48350034Y-136837105D01*
X48192942Y-136789452D01*
X48048170Y-136712069D01*
X47921272Y-136607928D01*
X47817131Y-136481030D01*
X47739748Y-136336258D01*
X47692095Y-136179166D01*
X47675400Y-136009660D01*
X47675400Y-134095940D01*
X47692095Y-133926434D01*
X47739748Y-133769342D01*
X47817131Y-133624570D01*
X47921272Y-133497672D01*
X48048170Y-133393531D01*
X48192942Y-133316148D01*
X48350034Y-133268495D01*
X48519540Y-133251800D01*
X50433260Y-133251800D01*
X50602766Y-133268495D01*
X50602766Y-133268495D01*
G37*
G36*
X54277400Y-132153800D02*
X50675400Y-132153800D01*
X50675400Y-128551800D01*
X54277400Y-128551800D01*
X54277400Y-132153800D01*
X54277400Y-132153800D01*
G37*
G36*
X47453378Y-128566093D02*
X47587027Y-128606635D01*
X47710182Y-128672462D01*
X47818139Y-128761061D01*
X47906738Y-128869018D01*
X47972565Y-128992173D01*
X48013107Y-129125822D01*
X48027400Y-129270940D01*
X48027400Y-131434660D01*
X48013107Y-131579778D01*
X47972565Y-131713427D01*
X47906738Y-131836582D01*
X47818139Y-131944539D01*
X47710182Y-132033138D01*
X47587027Y-132098965D01*
X47453378Y-132139507D01*
X47308260Y-132153800D01*
X45644540Y-132153800D01*
X45499422Y-132139507D01*
X45365773Y-132098965D01*
X45242618Y-132033138D01*
X45134661Y-131944539D01*
X45046062Y-131836582D01*
X44980235Y-131713427D01*
X44939693Y-131579778D01*
X44925400Y-131434660D01*
X44925400Y-129270940D01*
X44939693Y-129125822D01*
X44980235Y-128992173D01*
X45046062Y-128869018D01*
X45134661Y-128761061D01*
X45242618Y-128672462D01*
X45365773Y-128606635D01*
X45499422Y-128566093D01*
X45644540Y-128551800D01*
X47308260Y-128551800D01*
X47453378Y-128566093D01*
X47453378Y-128566093D01*
G37*
G36*
X267060604Y-91132344D02*
X267147659Y-91149660D01*
X267284332Y-91206272D01*
X267284333Y-91206273D01*
X267407338Y-91288462D01*
X267511938Y-91393062D01*
X267511940Y-91393065D01*
X267594128Y-91516068D01*
X267650740Y-91652741D01*
X267679600Y-91797833D01*
X267679600Y-91945767D01*
X267650740Y-92090859D01*
X267594128Y-92227532D01*
X267594127Y-92227533D01*
X267511938Y-92350538D01*
X267407338Y-92455138D01*
X267407335Y-92455140D01*
X267284332Y-92537328D01*
X267147659Y-92593940D01*
X267060604Y-92611256D01*
X267002569Y-92622800D01*
X266854631Y-92622800D01*
X266796596Y-92611256D01*
X266709541Y-92593940D01*
X266572868Y-92537328D01*
X266449865Y-92455140D01*
X266449862Y-92455138D01*
X266345262Y-92350538D01*
X266263073Y-92227533D01*
X266263072Y-92227532D01*
X266206460Y-92090859D01*
X266177600Y-91945767D01*
X266177600Y-91797833D01*
X266206460Y-91652741D01*
X266263072Y-91516068D01*
X266345260Y-91393065D01*
X266345262Y-91393062D01*
X266449862Y-91288462D01*
X266572867Y-91206273D01*
X266572868Y-91206272D01*
X266709541Y-91149660D01*
X266796596Y-91132344D01*
X266854631Y-91120800D01*
X267002569Y-91120800D01*
X267060604Y-91132344D01*
X267060604Y-91132344D01*
G37*
G36*
X264520604Y-91132344D02*
X264607659Y-91149660D01*
X264744332Y-91206272D01*
X264744333Y-91206273D01*
X264867338Y-91288462D01*
X264971938Y-91393062D01*
X264971940Y-91393065D01*
X265054128Y-91516068D01*
X265110740Y-91652741D01*
X265139600Y-91797833D01*
X265139600Y-91945767D01*
X265110740Y-92090859D01*
X265054128Y-92227532D01*
X265054127Y-92227533D01*
X264971938Y-92350538D01*
X264867338Y-92455138D01*
X264867335Y-92455140D01*
X264744332Y-92537328D01*
X264607659Y-92593940D01*
X264520604Y-92611256D01*
X264462569Y-92622800D01*
X264314631Y-92622800D01*
X264256596Y-92611256D01*
X264169541Y-92593940D01*
X264032868Y-92537328D01*
X263909865Y-92455140D01*
X263909862Y-92455138D01*
X263805262Y-92350538D01*
X263723073Y-92227533D01*
X263723072Y-92227532D01*
X263666460Y-92090859D01*
X263637600Y-91945767D01*
X263637600Y-91797833D01*
X263666460Y-91652741D01*
X263723072Y-91516068D01*
X263805260Y-91393065D01*
X263805262Y-91393062D01*
X263909862Y-91288462D01*
X264032867Y-91206273D01*
X264032868Y-91206272D01*
X264169541Y-91149660D01*
X264256596Y-91132344D01*
X264314631Y-91120800D01*
X264462569Y-91120800D01*
X264520604Y-91132344D01*
X264520604Y-91132344D01*
G37*
M02*
