%TF.GenerationSoftware,KiCad,Pcbnew,5.0.2-bee76a0~70~ubuntu18.04.1*%
%TF.CreationDate,2019-04-07T12:31:35-04:00*%
%TF.ProjectId,pcbnameplate,7063626e-616d-4657-906c-6174652e6b69,rev?*%
%TF.SameCoordinates,Original*%
%TF.FileFunction,Copper,L2,Bot*%
%TF.FilePolarity,Positive*%
%FSLAX46Y46*%
G04 Gerber Fmt 4.6, Leading zero omitted, Abs format (unit mm)*
G04 Created by KiCad (PCBNEW 5.0.2-bee76a0~70~ubuntu18.04.1) date Sun 07 Apr 2019 12:31:35 PM EDT*
%MOMM*%
%LPD*%
G01*
G04 APERTURE LIST*
%ADD10C,0.200000*%
%ADD11C,0.100000*%
%ADD12C,3.500000*%
%ADD13C,3.000000*%
%ADD14R,3.500000X3.500000*%
%ADD15C,1.400000*%
%ADD16C,0.800000*%
%ADD17C,0.250000*%
G04 APERTURE END LIST*
D10*
X36677600Y-138734800D02*
X36677600Y-88734800D01*
X316677600Y-138734800D02*
X316677600Y-88734800D01*
X36677600Y-88734800D02*
G75*
G02X316677600Y-88734800I140000000J-730000000D01*
G01*
X36677600Y-138734800D02*
X316677600Y-138734800D01*
D11*
G36*
X50437165Y-133307013D02*
X50522104Y-133319613D01*
X50605399Y-133340477D01*
X50686248Y-133369405D01*
X50763872Y-133406119D01*
X50837524Y-133450264D01*
X50906494Y-133501416D01*
X50970118Y-133559082D01*
X51027784Y-133622706D01*
X51078936Y-133691676D01*
X51123081Y-133765328D01*
X51159795Y-133842952D01*
X51188723Y-133923801D01*
X51209587Y-134007096D01*
X51222187Y-134092035D01*
X51226400Y-134177800D01*
X51226400Y-135927800D01*
X51222187Y-136013565D01*
X51209587Y-136098504D01*
X51188723Y-136181799D01*
X51159795Y-136262648D01*
X51123081Y-136340272D01*
X51078936Y-136413924D01*
X51027784Y-136482894D01*
X50970118Y-136546518D01*
X50906494Y-136604184D01*
X50837524Y-136655336D01*
X50763872Y-136699481D01*
X50686248Y-136736195D01*
X50605399Y-136765123D01*
X50522104Y-136785987D01*
X50437165Y-136798587D01*
X50351400Y-136802800D01*
X48601400Y-136802800D01*
X48515635Y-136798587D01*
X48430696Y-136785987D01*
X48347401Y-136765123D01*
X48266552Y-136736195D01*
X48188928Y-136699481D01*
X48115276Y-136655336D01*
X48046306Y-136604184D01*
X47982682Y-136546518D01*
X47925016Y-136482894D01*
X47873864Y-136413924D01*
X47829719Y-136340272D01*
X47793005Y-136262648D01*
X47764077Y-136181799D01*
X47743213Y-136098504D01*
X47730613Y-136013565D01*
X47726400Y-135927800D01*
X47726400Y-134177800D01*
X47730613Y-134092035D01*
X47743213Y-134007096D01*
X47764077Y-133923801D01*
X47793005Y-133842952D01*
X47829719Y-133765328D01*
X47873864Y-133691676D01*
X47925016Y-133622706D01*
X47982682Y-133559082D01*
X48046306Y-133501416D01*
X48115276Y-133450264D01*
X48188928Y-133406119D01*
X48266552Y-133369405D01*
X48347401Y-133340477D01*
X48430696Y-133319613D01*
X48515635Y-133307013D01*
X48601400Y-133302800D01*
X50351400Y-133302800D01*
X50437165Y-133307013D01*
X50437165Y-133307013D01*
G37*
D12*
X49476400Y-135052800D03*
D11*
G36*
X47299913Y-128606411D02*
X47372718Y-128617211D01*
X47444114Y-128635095D01*
X47513413Y-128659890D01*
X47579948Y-128691359D01*
X47643078Y-128729198D01*
X47702195Y-128773042D01*
X47756730Y-128822470D01*
X47806158Y-128877005D01*
X47850002Y-128936122D01*
X47887841Y-128999252D01*
X47919310Y-129065787D01*
X47944105Y-129135086D01*
X47961989Y-129206482D01*
X47972789Y-129279287D01*
X47976400Y-129352800D01*
X47976400Y-131352800D01*
X47972789Y-131426313D01*
X47961989Y-131499118D01*
X47944105Y-131570514D01*
X47919310Y-131639813D01*
X47887841Y-131706348D01*
X47850002Y-131769478D01*
X47806158Y-131828595D01*
X47756730Y-131883130D01*
X47702195Y-131932558D01*
X47643078Y-131976402D01*
X47579948Y-132014241D01*
X47513413Y-132045710D01*
X47444114Y-132070505D01*
X47372718Y-132088389D01*
X47299913Y-132099189D01*
X47226400Y-132102800D01*
X45726400Y-132102800D01*
X45652887Y-132099189D01*
X45580082Y-132088389D01*
X45508686Y-132070505D01*
X45439387Y-132045710D01*
X45372852Y-132014241D01*
X45309722Y-131976402D01*
X45250605Y-131932558D01*
X45196070Y-131883130D01*
X45146642Y-131828595D01*
X45102798Y-131769478D01*
X45064959Y-131706348D01*
X45033490Y-131639813D01*
X45008695Y-131570514D01*
X44990811Y-131499118D01*
X44980011Y-131426313D01*
X44976400Y-131352800D01*
X44976400Y-129352800D01*
X44980011Y-129279287D01*
X44990811Y-129206482D01*
X45008695Y-129135086D01*
X45033490Y-129065787D01*
X45064959Y-128999252D01*
X45102798Y-128936122D01*
X45146642Y-128877005D01*
X45196070Y-128822470D01*
X45250605Y-128773042D01*
X45309722Y-128729198D01*
X45372852Y-128691359D01*
X45439387Y-128659890D01*
X45508686Y-128635095D01*
X45580082Y-128617211D01*
X45652887Y-128606411D01*
X45726400Y-128602800D01*
X47226400Y-128602800D01*
X47299913Y-128606411D01*
X47299913Y-128606411D01*
G37*
D13*
X46476400Y-130352800D03*
D14*
X52476400Y-130352800D03*
D15*
X266928600Y-91871800D03*
X264388600Y-91871800D03*
D16*
X177596800Y-109982000D03*
X57505600Y-115506500D03*
X88442800Y-88036400D03*
X88442800Y-92405200D03*
X251180600Y-137185400D03*
X300834600Y-117322600D03*
X299183600Y-118973600D03*
X187807600Y-135356600D03*
X188696600Y-135356600D03*
X244932200Y-92151200D03*
X244932200Y-91211400D03*
D17*
X300834600Y-117322600D02*
X299183600Y-118973600D01*
M02*
