%TF.GenerationSoftware,KiCad,Pcbnew,5.0.2-bee76a0~70~ubuntu18.04.1*%
%TF.CreationDate,2019-04-07T12:31:35-04:00*%
%TF.ProjectId,pcbnameplate,7063626e-616d-4657-906c-6174652e6b69,rev?*%
%TF.SameCoordinates,Original*%
%TF.FileFunction,Legend,Bot*%
%TF.FilePolarity,Positive*%
%FSLAX46Y46*%
G04 Gerber Fmt 4.6, Leading zero omitted, Abs format (unit mm)*
G04 Created by KiCad (PCBNEW 5.0.2-bee76a0~70~ubuntu18.04.1) date Sun 07 Apr 2019 12:31:35 PM EDT*
%MOMM*%
%LPD*%
G01*
G04 APERTURE LIST*
%ADD10C,0.300000*%
%ADD11C,0.200000*%
G04 APERTURE END LIST*
D10*
X211480390Y-126130552D02*
X211480390Y-128511504D01*
X213147057Y-123511504D02*
X211480390Y-126130552D01*
X209813723Y-123511504D01*
X206004200Y-128511504D02*
X206004200Y-125892457D01*
X206242295Y-125416266D01*
X206718485Y-125178171D01*
X207670866Y-125178171D01*
X208147057Y-125416266D01*
X206004200Y-128273409D02*
X206480390Y-128511504D01*
X207670866Y-128511504D01*
X208147057Y-128273409D01*
X208385152Y-127797219D01*
X208385152Y-127321028D01*
X208147057Y-126844838D01*
X207670866Y-126606742D01*
X206480390Y-126606742D01*
X206004200Y-126368647D01*
X203623247Y-125178171D02*
X203623247Y-128511504D01*
X203623247Y-125654361D02*
X203385152Y-125416266D01*
X202908961Y-125178171D01*
X202194676Y-125178171D01*
X201718485Y-125416266D01*
X201480390Y-125892457D01*
X201480390Y-128511504D01*
X199099438Y-125178171D02*
X199099438Y-128511504D01*
X199099438Y-125654361D02*
X198861342Y-125416266D01*
X198385152Y-125178171D01*
X197670866Y-125178171D01*
X197194676Y-125416266D01*
X196956580Y-125892457D01*
X196956580Y-128511504D01*
X194575628Y-128511504D02*
X194575628Y-125178171D01*
X194575628Y-123511504D02*
X194813723Y-123749600D01*
X194575628Y-123987695D01*
X194337533Y-123749600D01*
X194575628Y-123511504D01*
X194575628Y-123987695D01*
X190051819Y-128273409D02*
X190528009Y-128511504D01*
X191480390Y-128511504D01*
X191956580Y-128273409D01*
X192194676Y-128035314D01*
X192432771Y-127559123D01*
X192432771Y-126130552D01*
X192194676Y-125654361D01*
X191956580Y-125416266D01*
X191480390Y-125178171D01*
X190528009Y-125178171D01*
X190051819Y-125416266D01*
X187908961Y-128511504D02*
X187908961Y-123511504D01*
X187432771Y-126606742D02*
X186004200Y-128511504D01*
X186004200Y-125178171D02*
X187908961Y-127082933D01*
X177432771Y-123749600D02*
X177908961Y-123511504D01*
X178623247Y-123511504D01*
X179337533Y-123749600D01*
X179813723Y-124225790D01*
X180051819Y-124701980D01*
X180289914Y-125654361D01*
X180289914Y-126368647D01*
X180051819Y-127321028D01*
X179813723Y-127797219D01*
X179337533Y-128273409D01*
X178623247Y-128511504D01*
X178147057Y-128511504D01*
X177432771Y-128273409D01*
X177194676Y-128035314D01*
X177194676Y-126368647D01*
X178147057Y-126368647D01*
X172908961Y-128511504D02*
X172908961Y-125892457D01*
X173147057Y-125416266D01*
X173623247Y-125178171D01*
X174575628Y-125178171D01*
X175051819Y-125416266D01*
X172908961Y-128273409D02*
X173385152Y-128511504D01*
X174575628Y-128511504D01*
X175051819Y-128273409D01*
X175289914Y-127797219D01*
X175289914Y-127321028D01*
X175051819Y-126844838D01*
X174575628Y-126606742D01*
X173385152Y-126606742D01*
X172908961Y-126368647D01*
X168385152Y-125178171D02*
X168385152Y-129225790D01*
X168623247Y-129701980D01*
X168861342Y-129940076D01*
X169337533Y-130178171D01*
X170051819Y-130178171D01*
X170528009Y-129940076D01*
X168385152Y-128273409D02*
X168861342Y-128511504D01*
X169813723Y-128511504D01*
X170289914Y-128273409D01*
X170528009Y-128035314D01*
X170766104Y-127559123D01*
X170766104Y-126130552D01*
X170528009Y-125654361D01*
X170289914Y-125416266D01*
X169813723Y-125178171D01*
X168861342Y-125178171D01*
X168385152Y-125416266D01*
X166004200Y-125178171D02*
X166004200Y-128511504D01*
X166004200Y-125654361D02*
X165766104Y-125416266D01*
X165289914Y-125178171D01*
X164575628Y-125178171D01*
X164099438Y-125416266D01*
X163861342Y-125892457D01*
X163861342Y-128511504D01*
X159575628Y-128273409D02*
X160051819Y-128511504D01*
X161004200Y-128511504D01*
X161480390Y-128273409D01*
X161718485Y-127797219D01*
X161718485Y-125892457D01*
X161480390Y-125416266D01*
X161004200Y-125178171D01*
X160051819Y-125178171D01*
X159575628Y-125416266D01*
X159337533Y-125892457D01*
X159337533Y-126368647D01*
X161718485Y-126844838D01*
X160051819Y-123273409D02*
X160766104Y-123987695D01*
X210289914Y-131787695D02*
X210051819Y-131549600D01*
X209575628Y-131311504D01*
X208385152Y-131311504D01*
X207908961Y-131549600D01*
X207670866Y-131787695D01*
X207432771Y-132263885D01*
X207432771Y-132740076D01*
X207670866Y-133454361D01*
X210528009Y-136311504D01*
X207432771Y-136311504D01*
X204337533Y-131311504D02*
X203861342Y-131311504D01*
X203385152Y-131549600D01*
X203147057Y-131787695D01*
X202908961Y-132263885D01*
X202670866Y-133216266D01*
X202670866Y-134406742D01*
X202908961Y-135359123D01*
X203147057Y-135835314D01*
X203385152Y-136073409D01*
X203861342Y-136311504D01*
X204337533Y-136311504D01*
X204813723Y-136073409D01*
X205051819Y-135835314D01*
X205289914Y-135359123D01*
X205528009Y-134406742D01*
X205528009Y-133216266D01*
X205289914Y-132263885D01*
X205051819Y-131787695D01*
X204813723Y-131549600D01*
X204337533Y-131311504D01*
X197908961Y-136311504D02*
X200766104Y-136311504D01*
X199337533Y-136311504D02*
X199337533Y-131311504D01*
X199813723Y-132025790D01*
X200289914Y-132501980D01*
X200766104Y-132740076D01*
X195528009Y-136311504D02*
X194575628Y-136311504D01*
X194099438Y-136073409D01*
X193861342Y-135835314D01*
X193385152Y-135121028D01*
X193147057Y-134168647D01*
X193147057Y-132263885D01*
X193385152Y-131787695D01*
X193623247Y-131549600D01*
X194099438Y-131311504D01*
X195051819Y-131311504D01*
X195528009Y-131549600D01*
X195766104Y-131787695D01*
X196004200Y-132263885D01*
X196004200Y-133454361D01*
X195766104Y-133930552D01*
X195528009Y-134168647D01*
X195051819Y-134406742D01*
X194099438Y-134406742D01*
X193623247Y-134168647D01*
X193385152Y-133930552D01*
X193147057Y-133454361D01*
X191004200Y-134406742D02*
X187194676Y-134406742D01*
X183861342Y-131311504D02*
X183385152Y-131311504D01*
X182908961Y-131549600D01*
X182670866Y-131787695D01*
X182432771Y-132263885D01*
X182194676Y-133216266D01*
X182194676Y-134406742D01*
X182432771Y-135359123D01*
X182670866Y-135835314D01*
X182908961Y-136073409D01*
X183385152Y-136311504D01*
X183861342Y-136311504D01*
X184337533Y-136073409D01*
X184575628Y-135835314D01*
X184813723Y-135359123D01*
X185051819Y-134406742D01*
X185051819Y-133216266D01*
X184813723Y-132263885D01*
X184575628Y-131787695D01*
X184337533Y-131549600D01*
X183861342Y-131311504D01*
X177908961Y-132978171D02*
X177908961Y-136311504D01*
X179099438Y-131073409D02*
X180289914Y-134644838D01*
X177194676Y-134644838D01*
X175289914Y-134406742D02*
X171480390Y-134406742D01*
X168147057Y-131311504D02*
X167670866Y-131311504D01*
X167194676Y-131549600D01*
X166956580Y-131787695D01*
X166718485Y-132263885D01*
X166480390Y-133216266D01*
X166480390Y-134406742D01*
X166718485Y-135359123D01*
X166956580Y-135835314D01*
X167194676Y-136073409D01*
X167670866Y-136311504D01*
X168147057Y-136311504D01*
X168623247Y-136073409D01*
X168861342Y-135835314D01*
X169099438Y-135359123D01*
X169337533Y-134406742D01*
X169337533Y-133216266D01*
X169099438Y-132263885D01*
X168861342Y-131787695D01*
X168623247Y-131549600D01*
X168147057Y-131311504D01*
X164813723Y-131311504D02*
X161480390Y-131311504D01*
X163623247Y-136311504D01*
D11*
X36677600Y-138734800D02*
X36677600Y-88734800D01*
X316677600Y-138734800D02*
X316677600Y-88734800D01*
X36677600Y-88734800D02*
G75*
G02X316677600Y-88734800I140000000J-730000000D01*
G01*
X36677600Y-138734800D02*
X316677600Y-138734800D01*
M02*
