%TF.GenerationSoftware,KiCad,Pcbnew,5.0.2-bee76a0~70~ubuntu18.04.1*%
%TF.CreationDate,2019-04-07T12:31:35-04:00*%
%TF.ProjectId,pcbnameplate,7063626e-616d-4657-906c-6174652e6b69,rev?*%
%TF.SameCoordinates,Original*%
%TF.FileFunction,Legend,Top*%
%TF.FilePolarity,Positive*%
%FSLAX46Y46*%
G04 Gerber Fmt 4.6, Leading zero omitted, Abs format (unit mm)*
G04 Created by KiCad (PCBNEW 5.0.2-bee76a0~70~ubuntu18.04.1) date Sun 07 Apr 2019 12:31:35 PM EDT*
%MOMM*%
%LPD*%
G01*
G04 APERTURE LIST*
%ADD10C,0.200000*%
%ADD11C,0.120000*%
%ADD12C,0.150000*%
G04 APERTURE END LIST*
D10*
X36677600Y-138734800D02*
X36677600Y-88734800D01*
X316677600Y-138734800D02*
X316677600Y-88734800D01*
X36677600Y-88734800D02*
G75*
G02X316677600Y-88734800I140000000J-730000000D01*
G01*
X36677600Y-138734800D02*
X316677600Y-138734800D01*
D11*
X306376800Y-118104800D02*
X306376800Y-119034800D01*
X306376800Y-121264800D02*
X306376800Y-120334800D01*
X306376800Y-121264800D02*
X308536800Y-121264800D01*
X306376800Y-118104800D02*
X307836800Y-118104800D01*
X293698200Y-121264800D02*
X293698200Y-120334800D01*
X293698200Y-118104800D02*
X293698200Y-119034800D01*
X293698200Y-118104800D02*
X291538200Y-118104800D01*
X293698200Y-121264800D02*
X292238200Y-121264800D01*
X296447800Y-108628264D02*
X296447800Y-107424136D01*
X298267800Y-108628264D02*
X298267800Y-107424136D01*
X307217400Y-108628264D02*
X307217400Y-107424136D01*
X309037400Y-108628264D02*
X309037400Y-107424136D01*
X291037600Y-108628264D02*
X291037600Y-107424136D01*
X292857600Y-108628264D02*
X292857600Y-107424136D01*
X301756400Y-108628264D02*
X301756400Y-107424136D01*
X303576400Y-108628264D02*
X303576400Y-107424136D01*
X304731336Y-112863800D02*
X305935464Y-112863800D01*
X304731336Y-115583800D02*
X305935464Y-115583800D01*
X294063336Y-112863800D02*
X295267464Y-112863800D01*
X294063336Y-115583800D02*
X295267464Y-115583800D01*
X53376400Y-125752800D02*
X53376400Y-128352800D01*
X38676400Y-125752800D02*
X53376400Y-125752800D01*
X53376400Y-134952800D02*
X51476400Y-134952800D01*
X53376400Y-132252800D02*
X53376400Y-134952800D01*
X38676400Y-134952800D02*
X38676400Y-125752800D01*
X47476400Y-134952800D02*
X38676400Y-134952800D01*
X52526400Y-125552800D02*
X53576400Y-125552800D01*
X53576400Y-126602800D02*
X53576400Y-125552800D01*
D12*
X182150600Y-109376000D02*
X180725600Y-109376000D01*
X189400600Y-109151000D02*
X189075600Y-109151000D01*
X189400600Y-116401000D02*
X189075600Y-116401000D01*
X182150600Y-116401000D02*
X182475600Y-116401000D01*
X182150600Y-109151000D02*
X182475600Y-109151000D01*
X182150600Y-116401000D02*
X182150600Y-116076000D01*
X189400600Y-116401000D02*
X189400600Y-116076000D01*
X189400600Y-109151000D02*
X189400600Y-109476000D01*
X182150600Y-109151000D02*
X182150600Y-109376000D01*
D11*
X104299936Y-82647200D02*
X105504064Y-82647200D01*
X104299936Y-80827200D02*
X105504064Y-80827200D01*
X108871936Y-85034800D02*
X110076064Y-85034800D01*
X108871936Y-83214800D02*
X110076064Y-83214800D01*
X113443936Y-87422400D02*
X114648064Y-87422400D01*
X113443936Y-85602400D02*
X114648064Y-85602400D01*
X118015936Y-89810000D02*
X119220064Y-89810000D01*
X118015936Y-87990000D02*
X119220064Y-87990000D01*
X122587936Y-92248400D02*
X123792064Y-92248400D01*
X122587936Y-90428400D02*
X123792064Y-90428400D01*
X127159936Y-94636000D02*
X128364064Y-94636000D01*
X127159936Y-92816000D02*
X128364064Y-92816000D01*
X61694800Y-129452800D02*
X58894800Y-129452800D01*
X61694800Y-131252800D02*
X61694800Y-129452800D01*
X58894800Y-131252800D02*
X61694800Y-131252800D01*
X54116700Y-112974000D02*
X55576700Y-112974000D01*
X54116700Y-116134000D02*
X56276700Y-116134000D01*
X54116700Y-116134000D02*
X54116700Y-115204000D01*
X54116700Y-112974000D02*
X54116700Y-113904000D01*
X61330300Y-110129200D02*
X62790300Y-110129200D01*
X61330300Y-113289200D02*
X63490300Y-113289200D01*
X61330300Y-113289200D02*
X61330300Y-112359200D01*
X61330300Y-110129200D02*
X61330300Y-111059200D01*
X45158576Y-115896220D02*
X46362704Y-115896220D01*
X45158576Y-113176220D02*
X46362704Y-113176220D01*
X56790000Y-109009264D02*
X56790000Y-107805136D01*
X54970000Y-109009264D02*
X54970000Y-107805136D01*
X64003600Y-105961264D02*
X64003600Y-104757136D01*
X62183600Y-105961264D02*
X62183600Y-104757136D01*
X59748336Y-119477200D02*
X60952464Y-119477200D01*
X59748336Y-117657200D02*
X60952464Y-117657200D01*
X58630736Y-95652000D02*
X59834864Y-95652000D01*
X58630736Y-93832000D02*
X59834864Y-93832000D01*
X79357136Y-86754800D02*
X80561264Y-86754800D01*
X79357136Y-84034800D02*
X80561264Y-84034800D01*
X90816800Y-89196400D02*
X96026800Y-89196400D01*
X90816800Y-86876400D02*
X90816800Y-89196400D01*
X96026800Y-86876400D02*
X90816800Y-86876400D01*
X90816800Y-93565200D02*
X96026800Y-93565200D01*
X90816800Y-91245200D02*
X90816800Y-93565200D01*
X96026800Y-91245200D02*
X90816800Y-91245200D01*
X248575600Y-136741600D02*
X249925600Y-136741600D01*
X249275600Y-135291600D02*
X249925600Y-135291600D01*
X290787600Y-96074600D02*
X290787600Y-101284600D01*
X293107600Y-96074600D02*
X290787600Y-96074600D01*
X293107600Y-101284600D02*
X293107600Y-96074600D01*
X306992800Y-96081200D02*
X306992800Y-101291200D01*
X309312800Y-96081200D02*
X306992800Y-96081200D01*
X309312800Y-101291200D02*
X309312800Y-96081200D01*
D12*
X263358600Y-91471800D02*
X263858600Y-90971800D01*
X263358600Y-92271800D02*
X263358600Y-91471800D01*
X263858600Y-92771800D02*
X263358600Y-92271800D01*
X267458600Y-92771800D02*
X263858600Y-92771800D01*
X267958600Y-92271800D02*
X267458600Y-92771800D01*
X267958600Y-91471800D02*
X267958600Y-92271800D01*
X267458600Y-90971800D02*
X267958600Y-91471800D01*
X263858600Y-90971800D02*
X267458600Y-90971800D01*
X306089180Y-122732419D02*
X305993942Y-122684800D01*
X305898704Y-122589561D01*
X305755847Y-122446704D01*
X305660609Y-122399085D01*
X305565371Y-122399085D01*
X305612990Y-122637180D02*
X305517752Y-122589561D01*
X305422514Y-122494323D01*
X305374895Y-122303847D01*
X305374895Y-121970514D01*
X305422514Y-121780038D01*
X305517752Y-121684800D01*
X305612990Y-121637180D01*
X305803466Y-121637180D01*
X305898704Y-121684800D01*
X305993942Y-121780038D01*
X306041561Y-121970514D01*
X306041561Y-122303847D01*
X305993942Y-122494323D01*
X305898704Y-122589561D01*
X305803466Y-122637180D01*
X305612990Y-122637180D01*
X306422514Y-121732419D02*
X306470133Y-121684800D01*
X306565371Y-121637180D01*
X306803466Y-121637180D01*
X306898704Y-121684800D01*
X306946323Y-121732419D01*
X306993942Y-121827657D01*
X306993942Y-121922895D01*
X306946323Y-122065752D01*
X306374895Y-122637180D01*
X306993942Y-122637180D01*
X307612990Y-121637180D02*
X307708228Y-121637180D01*
X307803466Y-121684800D01*
X307851085Y-121732419D01*
X307898704Y-121827657D01*
X307946323Y-122018133D01*
X307946323Y-122256228D01*
X307898704Y-122446704D01*
X307851085Y-122541942D01*
X307803466Y-122589561D01*
X307708228Y-122637180D01*
X307612990Y-122637180D01*
X307517752Y-122589561D01*
X307470133Y-122541942D01*
X307422514Y-122446704D01*
X307374895Y-122256228D01*
X307374895Y-122018133D01*
X307422514Y-121827657D01*
X307470133Y-121732419D01*
X307517752Y-121684800D01*
X307612990Y-121637180D01*
X308327276Y-121732419D02*
X308374895Y-121684800D01*
X308470133Y-121637180D01*
X308708228Y-121637180D01*
X308803466Y-121684800D01*
X308851085Y-121732419D01*
X308898704Y-121827657D01*
X308898704Y-121922895D01*
X308851085Y-122065752D01*
X308279657Y-122637180D01*
X308898704Y-122637180D01*
X291890580Y-117732419D02*
X291795342Y-117684800D01*
X291700104Y-117589561D01*
X291557247Y-117446704D01*
X291462009Y-117399085D01*
X291366771Y-117399085D01*
X291414390Y-117637180D02*
X291319152Y-117589561D01*
X291223914Y-117494323D01*
X291176295Y-117303847D01*
X291176295Y-116970514D01*
X291223914Y-116780038D01*
X291319152Y-116684800D01*
X291414390Y-116637180D01*
X291604866Y-116637180D01*
X291700104Y-116684800D01*
X291795342Y-116780038D01*
X291842961Y-116970514D01*
X291842961Y-117303847D01*
X291795342Y-117494323D01*
X291700104Y-117589561D01*
X291604866Y-117637180D01*
X291414390Y-117637180D01*
X292223914Y-116732419D02*
X292271533Y-116684800D01*
X292366771Y-116637180D01*
X292604866Y-116637180D01*
X292700104Y-116684800D01*
X292747723Y-116732419D01*
X292795342Y-116827657D01*
X292795342Y-116922895D01*
X292747723Y-117065752D01*
X292176295Y-117637180D01*
X292795342Y-117637180D01*
X293414390Y-116637180D02*
X293509628Y-116637180D01*
X293604866Y-116684800D01*
X293652485Y-116732419D01*
X293700104Y-116827657D01*
X293747723Y-117018133D01*
X293747723Y-117256228D01*
X293700104Y-117446704D01*
X293652485Y-117541942D01*
X293604866Y-117589561D01*
X293509628Y-117637180D01*
X293414390Y-117637180D01*
X293319152Y-117589561D01*
X293271533Y-117541942D01*
X293223914Y-117446704D01*
X293176295Y-117256228D01*
X293176295Y-117018133D01*
X293223914Y-116827657D01*
X293271533Y-116732419D01*
X293319152Y-116684800D01*
X293414390Y-116637180D01*
X294700104Y-117637180D02*
X294128676Y-117637180D01*
X294414390Y-117637180D02*
X294414390Y-116637180D01*
X294319152Y-116780038D01*
X294223914Y-116875276D01*
X294128676Y-116922895D01*
X295990180Y-109145247D02*
X295513990Y-109478580D01*
X295990180Y-109716676D02*
X294990180Y-109716676D01*
X294990180Y-109335723D01*
X295037800Y-109240485D01*
X295085419Y-109192866D01*
X295180657Y-109145247D01*
X295323514Y-109145247D01*
X295418752Y-109192866D01*
X295466371Y-109240485D01*
X295513990Y-109335723D01*
X295513990Y-109716676D01*
X294990180Y-108811914D02*
X294990180Y-108192866D01*
X295371133Y-108526200D01*
X295371133Y-108383342D01*
X295418752Y-108288104D01*
X295466371Y-108240485D01*
X295561609Y-108192866D01*
X295799704Y-108192866D01*
X295894942Y-108240485D01*
X295942561Y-108288104D01*
X295990180Y-108383342D01*
X295990180Y-108669057D01*
X295942561Y-108764295D01*
X295894942Y-108811914D01*
X294990180Y-107573819D02*
X294990180Y-107478580D01*
X295037800Y-107383342D01*
X295085419Y-107335723D01*
X295180657Y-107288104D01*
X295371133Y-107240485D01*
X295609228Y-107240485D01*
X295799704Y-107288104D01*
X295894942Y-107335723D01*
X295942561Y-107383342D01*
X295990180Y-107478580D01*
X295990180Y-107573819D01*
X295942561Y-107669057D01*
X295894942Y-107716676D01*
X295799704Y-107764295D01*
X295609228Y-107811914D01*
X295371133Y-107811914D01*
X295180657Y-107764295D01*
X295085419Y-107716676D01*
X295037800Y-107669057D01*
X294990180Y-107573819D01*
X295085419Y-106859533D02*
X295037800Y-106811914D01*
X294990180Y-106716676D01*
X294990180Y-106478580D01*
X295037800Y-106383342D01*
X295085419Y-106335723D01*
X295180657Y-106288104D01*
X295275895Y-106288104D01*
X295418752Y-106335723D01*
X295990180Y-106907152D01*
X295990180Y-106288104D01*
X306759780Y-109145247D02*
X306283590Y-109478580D01*
X306759780Y-109716676D02*
X305759780Y-109716676D01*
X305759780Y-109335723D01*
X305807400Y-109240485D01*
X305855019Y-109192866D01*
X305950257Y-109145247D01*
X306093114Y-109145247D01*
X306188352Y-109192866D01*
X306235971Y-109240485D01*
X306283590Y-109335723D01*
X306283590Y-109716676D01*
X305759780Y-108811914D02*
X305759780Y-108192866D01*
X306140733Y-108526200D01*
X306140733Y-108383342D01*
X306188352Y-108288104D01*
X306235971Y-108240485D01*
X306331209Y-108192866D01*
X306569304Y-108192866D01*
X306664542Y-108240485D01*
X306712161Y-108288104D01*
X306759780Y-108383342D01*
X306759780Y-108669057D01*
X306712161Y-108764295D01*
X306664542Y-108811914D01*
X305759780Y-107573819D02*
X305759780Y-107478580D01*
X305807400Y-107383342D01*
X305855019Y-107335723D01*
X305950257Y-107288104D01*
X306140733Y-107240485D01*
X306378828Y-107240485D01*
X306569304Y-107288104D01*
X306664542Y-107335723D01*
X306712161Y-107383342D01*
X306759780Y-107478580D01*
X306759780Y-107573819D01*
X306712161Y-107669057D01*
X306664542Y-107716676D01*
X306569304Y-107764295D01*
X306378828Y-107811914D01*
X306140733Y-107811914D01*
X305950257Y-107764295D01*
X305855019Y-107716676D01*
X305807400Y-107669057D01*
X305759780Y-107573819D01*
X306093114Y-106383342D02*
X306759780Y-106383342D01*
X305712161Y-106621438D02*
X306426447Y-106859533D01*
X306426447Y-106240485D01*
X290579980Y-109145247D02*
X290103790Y-109478580D01*
X290579980Y-109716676D02*
X289579980Y-109716676D01*
X289579980Y-109335723D01*
X289627600Y-109240485D01*
X289675219Y-109192866D01*
X289770457Y-109145247D01*
X289913314Y-109145247D01*
X290008552Y-109192866D01*
X290056171Y-109240485D01*
X290103790Y-109335723D01*
X290103790Y-109716676D01*
X289579980Y-108811914D02*
X289579980Y-108192866D01*
X289960933Y-108526200D01*
X289960933Y-108383342D01*
X290008552Y-108288104D01*
X290056171Y-108240485D01*
X290151409Y-108192866D01*
X290389504Y-108192866D01*
X290484742Y-108240485D01*
X290532361Y-108288104D01*
X290579980Y-108383342D01*
X290579980Y-108669057D01*
X290532361Y-108764295D01*
X290484742Y-108811914D01*
X289579980Y-107573819D02*
X289579980Y-107478580D01*
X289627600Y-107383342D01*
X289675219Y-107335723D01*
X289770457Y-107288104D01*
X289960933Y-107240485D01*
X290199028Y-107240485D01*
X290389504Y-107288104D01*
X290484742Y-107335723D01*
X290532361Y-107383342D01*
X290579980Y-107478580D01*
X290579980Y-107573819D01*
X290532361Y-107669057D01*
X290484742Y-107716676D01*
X290389504Y-107764295D01*
X290199028Y-107811914D01*
X289960933Y-107811914D01*
X289770457Y-107764295D01*
X289675219Y-107716676D01*
X289627600Y-107669057D01*
X289579980Y-107573819D01*
X290579980Y-106288104D02*
X290579980Y-106859533D01*
X290579980Y-106573819D02*
X289579980Y-106573819D01*
X289722838Y-106669057D01*
X289818076Y-106764295D01*
X289865695Y-106859533D01*
X301298780Y-109145247D02*
X300822590Y-109478580D01*
X301298780Y-109716676D02*
X300298780Y-109716676D01*
X300298780Y-109335723D01*
X300346400Y-109240485D01*
X300394019Y-109192866D01*
X300489257Y-109145247D01*
X300632114Y-109145247D01*
X300727352Y-109192866D01*
X300774971Y-109240485D01*
X300822590Y-109335723D01*
X300822590Y-109716676D01*
X300298780Y-108811914D02*
X300298780Y-108192866D01*
X300679733Y-108526200D01*
X300679733Y-108383342D01*
X300727352Y-108288104D01*
X300774971Y-108240485D01*
X300870209Y-108192866D01*
X301108304Y-108192866D01*
X301203542Y-108240485D01*
X301251161Y-108288104D01*
X301298780Y-108383342D01*
X301298780Y-108669057D01*
X301251161Y-108764295D01*
X301203542Y-108811914D01*
X300298780Y-107573819D02*
X300298780Y-107478580D01*
X300346400Y-107383342D01*
X300394019Y-107335723D01*
X300489257Y-107288104D01*
X300679733Y-107240485D01*
X300917828Y-107240485D01*
X301108304Y-107288104D01*
X301203542Y-107335723D01*
X301251161Y-107383342D01*
X301298780Y-107478580D01*
X301298780Y-107573819D01*
X301251161Y-107669057D01*
X301203542Y-107716676D01*
X301108304Y-107764295D01*
X300917828Y-107811914D01*
X300679733Y-107811914D01*
X300489257Y-107764295D01*
X300394019Y-107716676D01*
X300346400Y-107669057D01*
X300298780Y-107573819D01*
X300298780Y-106907152D02*
X300298780Y-106288104D01*
X300679733Y-106621438D01*
X300679733Y-106478580D01*
X300727352Y-106383342D01*
X300774971Y-106335723D01*
X300870209Y-106288104D01*
X301108304Y-106288104D01*
X301203542Y-106335723D01*
X301251161Y-106383342D01*
X301298780Y-106478580D01*
X301298780Y-106764295D01*
X301251161Y-106859533D01*
X301203542Y-106907152D01*
X304214352Y-112300942D02*
X304166733Y-112348561D01*
X304023876Y-112396180D01*
X303928638Y-112396180D01*
X303785780Y-112348561D01*
X303690542Y-112253323D01*
X303642923Y-112158085D01*
X303595304Y-111967609D01*
X303595304Y-111824752D01*
X303642923Y-111634276D01*
X303690542Y-111539038D01*
X303785780Y-111443800D01*
X303928638Y-111396180D01*
X304023876Y-111396180D01*
X304166733Y-111443800D01*
X304214352Y-111491419D01*
X304595304Y-111491419D02*
X304642923Y-111443800D01*
X304738161Y-111396180D01*
X304976257Y-111396180D01*
X305071495Y-111443800D01*
X305119114Y-111491419D01*
X305166733Y-111586657D01*
X305166733Y-111681895D01*
X305119114Y-111824752D01*
X304547685Y-112396180D01*
X305166733Y-112396180D01*
X305785780Y-111396180D02*
X305881019Y-111396180D01*
X305976257Y-111443800D01*
X306023876Y-111491419D01*
X306071495Y-111586657D01*
X306119114Y-111777133D01*
X306119114Y-112015228D01*
X306071495Y-112205704D01*
X306023876Y-112300942D01*
X305976257Y-112348561D01*
X305881019Y-112396180D01*
X305785780Y-112396180D01*
X305690542Y-112348561D01*
X305642923Y-112300942D01*
X305595304Y-112205704D01*
X305547685Y-112015228D01*
X305547685Y-111777133D01*
X305595304Y-111586657D01*
X305642923Y-111491419D01*
X305690542Y-111443800D01*
X305785780Y-111396180D01*
X307071495Y-112396180D02*
X306500066Y-112396180D01*
X306785780Y-112396180D02*
X306785780Y-111396180D01*
X306690542Y-111539038D01*
X306595304Y-111634276D01*
X306500066Y-111681895D01*
X293546352Y-112300942D02*
X293498733Y-112348561D01*
X293355876Y-112396180D01*
X293260638Y-112396180D01*
X293117780Y-112348561D01*
X293022542Y-112253323D01*
X292974923Y-112158085D01*
X292927304Y-111967609D01*
X292927304Y-111824752D01*
X292974923Y-111634276D01*
X293022542Y-111539038D01*
X293117780Y-111443800D01*
X293260638Y-111396180D01*
X293355876Y-111396180D01*
X293498733Y-111443800D01*
X293546352Y-111491419D01*
X293927304Y-111491419D02*
X293974923Y-111443800D01*
X294070161Y-111396180D01*
X294308257Y-111396180D01*
X294403495Y-111443800D01*
X294451114Y-111491419D01*
X294498733Y-111586657D01*
X294498733Y-111681895D01*
X294451114Y-111824752D01*
X293879685Y-112396180D01*
X294498733Y-112396180D01*
X295117780Y-111396180D02*
X295213019Y-111396180D01*
X295308257Y-111443800D01*
X295355876Y-111491419D01*
X295403495Y-111586657D01*
X295451114Y-111777133D01*
X295451114Y-112015228D01*
X295403495Y-112205704D01*
X295355876Y-112300942D01*
X295308257Y-112348561D01*
X295213019Y-112396180D01*
X295117780Y-112396180D01*
X295022542Y-112348561D01*
X294974923Y-112300942D01*
X294927304Y-112205704D01*
X294879685Y-112015228D01*
X294879685Y-111777133D01*
X294927304Y-111586657D01*
X294974923Y-111491419D01*
X295022542Y-111443800D01*
X295117780Y-111396180D01*
X296070161Y-111396180D02*
X296165400Y-111396180D01*
X296260638Y-111443800D01*
X296308257Y-111491419D01*
X296355876Y-111586657D01*
X296403495Y-111777133D01*
X296403495Y-112015228D01*
X296355876Y-112205704D01*
X296308257Y-112300942D01*
X296260638Y-112348561D01*
X296165400Y-112396180D01*
X296070161Y-112396180D01*
X295974923Y-112348561D01*
X295927304Y-112300942D01*
X295879685Y-112205704D01*
X295832066Y-112015228D01*
X295832066Y-111777133D01*
X295879685Y-111586657D01*
X295927304Y-111491419D01*
X295974923Y-111443800D01*
X296070161Y-111396180D01*
X42264495Y-135555180D02*
X42264495Y-136269466D01*
X42216876Y-136412323D01*
X42121638Y-136507561D01*
X41978780Y-136555180D01*
X41883542Y-136555180D01*
X42693066Y-136269466D02*
X43169257Y-136269466D01*
X42597828Y-136555180D02*
X42931161Y-135555180D01*
X43264495Y-136555180D01*
X44169257Y-136459942D02*
X44121638Y-136507561D01*
X43978780Y-136555180D01*
X43883542Y-136555180D01*
X43740685Y-136507561D01*
X43645447Y-136412323D01*
X43597828Y-136317085D01*
X43550209Y-136126609D01*
X43550209Y-135983752D01*
X43597828Y-135793276D01*
X43645447Y-135698038D01*
X43740685Y-135602800D01*
X43883542Y-135555180D01*
X43978780Y-135555180D01*
X44121638Y-135602800D01*
X44169257Y-135650419D01*
X44597828Y-136555180D02*
X44597828Y-135555180D01*
X45169257Y-136555180D02*
X44740685Y-135983752D01*
X45169257Y-135555180D02*
X44597828Y-136126609D01*
X46121638Y-136555180D02*
X45550209Y-136555180D01*
X45835923Y-136555180D02*
X45835923Y-135555180D01*
X45740685Y-135698038D01*
X45645447Y-135793276D01*
X45550209Y-135840895D01*
X184323219Y-107178380D02*
X184323219Y-106178380D01*
X185370838Y-107083142D02*
X185323219Y-107130761D01*
X185180361Y-107178380D01*
X185085123Y-107178380D01*
X184942266Y-107130761D01*
X184847028Y-107035523D01*
X184799409Y-106940285D01*
X184751790Y-106749809D01*
X184751790Y-106606952D01*
X184799409Y-106416476D01*
X184847028Y-106321238D01*
X184942266Y-106226000D01*
X185085123Y-106178380D01*
X185180361Y-106178380D01*
X185323219Y-106226000D01*
X185370838Y-106273619D01*
X185989885Y-106178380D02*
X186085123Y-106178380D01*
X186180361Y-106226000D01*
X186227980Y-106273619D01*
X186275600Y-106368857D01*
X186323219Y-106559333D01*
X186323219Y-106797428D01*
X186275600Y-106987904D01*
X186227980Y-107083142D01*
X186180361Y-107130761D01*
X186085123Y-107178380D01*
X185989885Y-107178380D01*
X185894647Y-107130761D01*
X185847028Y-107083142D01*
X185799409Y-106987904D01*
X185751790Y-106797428D01*
X185751790Y-106559333D01*
X185799409Y-106368857D01*
X185847028Y-106273619D01*
X185894647Y-106226000D01*
X185989885Y-106178380D01*
X187275600Y-107178380D02*
X186704171Y-107178380D01*
X186989885Y-107178380D02*
X186989885Y-106178380D01*
X186894647Y-106321238D01*
X186799409Y-106416476D01*
X186704171Y-106464095D01*
X99566552Y-82189580D02*
X99233219Y-81713390D01*
X98995123Y-82189580D02*
X98995123Y-81189580D01*
X99376076Y-81189580D01*
X99471314Y-81237200D01*
X99518933Y-81284819D01*
X99566552Y-81380057D01*
X99566552Y-81522914D01*
X99518933Y-81618152D01*
X99471314Y-81665771D01*
X99376076Y-81713390D01*
X98995123Y-81713390D01*
X100518933Y-82189580D02*
X99947504Y-82189580D01*
X100233219Y-82189580D02*
X100233219Y-81189580D01*
X100137980Y-81332438D01*
X100042742Y-81427676D01*
X99947504Y-81475295D01*
X101137980Y-81189580D02*
X101233219Y-81189580D01*
X101328457Y-81237200D01*
X101376076Y-81284819D01*
X101423695Y-81380057D01*
X101471314Y-81570533D01*
X101471314Y-81808628D01*
X101423695Y-81999104D01*
X101376076Y-82094342D01*
X101328457Y-82141961D01*
X101233219Y-82189580D01*
X101137980Y-82189580D01*
X101042742Y-82141961D01*
X100995123Y-82094342D01*
X100947504Y-81999104D01*
X100899885Y-81808628D01*
X100899885Y-81570533D01*
X100947504Y-81380057D01*
X100995123Y-81284819D01*
X101042742Y-81237200D01*
X101137980Y-81189580D01*
X102090361Y-81189580D02*
X102185600Y-81189580D01*
X102280838Y-81237200D01*
X102328457Y-81284819D01*
X102376076Y-81380057D01*
X102423695Y-81570533D01*
X102423695Y-81808628D01*
X102376076Y-81999104D01*
X102328457Y-82094342D01*
X102280838Y-82141961D01*
X102185600Y-82189580D01*
X102090361Y-82189580D01*
X101995123Y-82141961D01*
X101947504Y-82094342D01*
X101899885Y-81999104D01*
X101852266Y-81808628D01*
X101852266Y-81570533D01*
X101899885Y-81380057D01*
X101947504Y-81284819D01*
X101995123Y-81237200D01*
X102090361Y-81189580D01*
X104087752Y-84577180D02*
X103754419Y-84100990D01*
X103516323Y-84577180D02*
X103516323Y-83577180D01*
X103897276Y-83577180D01*
X103992514Y-83624800D01*
X104040133Y-83672419D01*
X104087752Y-83767657D01*
X104087752Y-83910514D01*
X104040133Y-84005752D01*
X103992514Y-84053371D01*
X103897276Y-84100990D01*
X103516323Y-84100990D01*
X105040133Y-84577180D02*
X104468704Y-84577180D01*
X104754419Y-84577180D02*
X104754419Y-83577180D01*
X104659180Y-83720038D01*
X104563942Y-83815276D01*
X104468704Y-83862895D01*
X105659180Y-83577180D02*
X105754419Y-83577180D01*
X105849657Y-83624800D01*
X105897276Y-83672419D01*
X105944895Y-83767657D01*
X105992514Y-83958133D01*
X105992514Y-84196228D01*
X105944895Y-84386704D01*
X105897276Y-84481942D01*
X105849657Y-84529561D01*
X105754419Y-84577180D01*
X105659180Y-84577180D01*
X105563942Y-84529561D01*
X105516323Y-84481942D01*
X105468704Y-84386704D01*
X105421085Y-84196228D01*
X105421085Y-83958133D01*
X105468704Y-83767657D01*
X105516323Y-83672419D01*
X105563942Y-83624800D01*
X105659180Y-83577180D01*
X106944895Y-84577180D02*
X106373466Y-84577180D01*
X106659180Y-84577180D02*
X106659180Y-83577180D01*
X106563942Y-83720038D01*
X106468704Y-83815276D01*
X106373466Y-83862895D01*
X108659752Y-86964780D02*
X108326419Y-86488590D01*
X108088323Y-86964780D02*
X108088323Y-85964780D01*
X108469276Y-85964780D01*
X108564514Y-86012400D01*
X108612133Y-86060019D01*
X108659752Y-86155257D01*
X108659752Y-86298114D01*
X108612133Y-86393352D01*
X108564514Y-86440971D01*
X108469276Y-86488590D01*
X108088323Y-86488590D01*
X109612133Y-86964780D02*
X109040704Y-86964780D01*
X109326419Y-86964780D02*
X109326419Y-85964780D01*
X109231180Y-86107638D01*
X109135942Y-86202876D01*
X109040704Y-86250495D01*
X110231180Y-85964780D02*
X110326419Y-85964780D01*
X110421657Y-86012400D01*
X110469276Y-86060019D01*
X110516895Y-86155257D01*
X110564514Y-86345733D01*
X110564514Y-86583828D01*
X110516895Y-86774304D01*
X110469276Y-86869542D01*
X110421657Y-86917161D01*
X110326419Y-86964780D01*
X110231180Y-86964780D01*
X110135942Y-86917161D01*
X110088323Y-86869542D01*
X110040704Y-86774304D01*
X109993085Y-86583828D01*
X109993085Y-86345733D01*
X110040704Y-86155257D01*
X110088323Y-86060019D01*
X110135942Y-86012400D01*
X110231180Y-85964780D01*
X110945466Y-86060019D02*
X110993085Y-86012400D01*
X111088323Y-85964780D01*
X111326419Y-85964780D01*
X111421657Y-86012400D01*
X111469276Y-86060019D01*
X111516895Y-86155257D01*
X111516895Y-86250495D01*
X111469276Y-86393352D01*
X110897847Y-86964780D01*
X111516895Y-86964780D01*
X113231752Y-89352380D02*
X112898419Y-88876190D01*
X112660323Y-89352380D02*
X112660323Y-88352380D01*
X113041276Y-88352380D01*
X113136514Y-88400000D01*
X113184133Y-88447619D01*
X113231752Y-88542857D01*
X113231752Y-88685714D01*
X113184133Y-88780952D01*
X113136514Y-88828571D01*
X113041276Y-88876190D01*
X112660323Y-88876190D01*
X114184133Y-89352380D02*
X113612704Y-89352380D01*
X113898419Y-89352380D02*
X113898419Y-88352380D01*
X113803180Y-88495238D01*
X113707942Y-88590476D01*
X113612704Y-88638095D01*
X114803180Y-88352380D02*
X114898419Y-88352380D01*
X114993657Y-88400000D01*
X115041276Y-88447619D01*
X115088895Y-88542857D01*
X115136514Y-88733333D01*
X115136514Y-88971428D01*
X115088895Y-89161904D01*
X115041276Y-89257142D01*
X114993657Y-89304761D01*
X114898419Y-89352380D01*
X114803180Y-89352380D01*
X114707942Y-89304761D01*
X114660323Y-89257142D01*
X114612704Y-89161904D01*
X114565085Y-88971428D01*
X114565085Y-88733333D01*
X114612704Y-88542857D01*
X114660323Y-88447619D01*
X114707942Y-88400000D01*
X114803180Y-88352380D01*
X115469847Y-88352380D02*
X116088895Y-88352380D01*
X115755561Y-88733333D01*
X115898419Y-88733333D01*
X115993657Y-88780952D01*
X116041276Y-88828571D01*
X116088895Y-88923809D01*
X116088895Y-89161904D01*
X116041276Y-89257142D01*
X115993657Y-89304761D01*
X115898419Y-89352380D01*
X115612704Y-89352380D01*
X115517466Y-89304761D01*
X115469847Y-89257142D01*
X117803752Y-91790780D02*
X117470419Y-91314590D01*
X117232323Y-91790780D02*
X117232323Y-90790780D01*
X117613276Y-90790780D01*
X117708514Y-90838400D01*
X117756133Y-90886019D01*
X117803752Y-90981257D01*
X117803752Y-91124114D01*
X117756133Y-91219352D01*
X117708514Y-91266971D01*
X117613276Y-91314590D01*
X117232323Y-91314590D01*
X118756133Y-91790780D02*
X118184704Y-91790780D01*
X118470419Y-91790780D02*
X118470419Y-90790780D01*
X118375180Y-90933638D01*
X118279942Y-91028876D01*
X118184704Y-91076495D01*
X119375180Y-90790780D02*
X119470419Y-90790780D01*
X119565657Y-90838400D01*
X119613276Y-90886019D01*
X119660895Y-90981257D01*
X119708514Y-91171733D01*
X119708514Y-91409828D01*
X119660895Y-91600304D01*
X119613276Y-91695542D01*
X119565657Y-91743161D01*
X119470419Y-91790780D01*
X119375180Y-91790780D01*
X119279942Y-91743161D01*
X119232323Y-91695542D01*
X119184704Y-91600304D01*
X119137085Y-91409828D01*
X119137085Y-91171733D01*
X119184704Y-90981257D01*
X119232323Y-90886019D01*
X119279942Y-90838400D01*
X119375180Y-90790780D01*
X120565657Y-91124114D02*
X120565657Y-91790780D01*
X120327561Y-90743161D02*
X120089466Y-91457447D01*
X120708514Y-91457447D01*
X122375752Y-94178380D02*
X122042419Y-93702190D01*
X121804323Y-94178380D02*
X121804323Y-93178380D01*
X122185276Y-93178380D01*
X122280514Y-93226000D01*
X122328133Y-93273619D01*
X122375752Y-93368857D01*
X122375752Y-93511714D01*
X122328133Y-93606952D01*
X122280514Y-93654571D01*
X122185276Y-93702190D01*
X121804323Y-93702190D01*
X123328133Y-94178380D02*
X122756704Y-94178380D01*
X123042419Y-94178380D02*
X123042419Y-93178380D01*
X122947180Y-93321238D01*
X122851942Y-93416476D01*
X122756704Y-93464095D01*
X123947180Y-93178380D02*
X124042419Y-93178380D01*
X124137657Y-93226000D01*
X124185276Y-93273619D01*
X124232895Y-93368857D01*
X124280514Y-93559333D01*
X124280514Y-93797428D01*
X124232895Y-93987904D01*
X124185276Y-94083142D01*
X124137657Y-94130761D01*
X124042419Y-94178380D01*
X123947180Y-94178380D01*
X123851942Y-94130761D01*
X123804323Y-94083142D01*
X123756704Y-93987904D01*
X123709085Y-93797428D01*
X123709085Y-93559333D01*
X123756704Y-93368857D01*
X123804323Y-93273619D01*
X123851942Y-93226000D01*
X123947180Y-93178380D01*
X125185276Y-93178380D02*
X124709085Y-93178380D01*
X124661466Y-93654571D01*
X124709085Y-93606952D01*
X124804323Y-93559333D01*
X125042419Y-93559333D01*
X125137657Y-93606952D01*
X125185276Y-93654571D01*
X125232895Y-93749809D01*
X125232895Y-93987904D01*
X125185276Y-94083142D01*
X125137657Y-94130761D01*
X125042419Y-94178380D01*
X124804323Y-94178380D01*
X124709085Y-94130761D01*
X124661466Y-94083142D01*
X58780514Y-132505180D02*
X58780514Y-131505180D01*
X59018609Y-131505180D01*
X59161466Y-131552800D01*
X59256704Y-131648038D01*
X59304323Y-131743276D01*
X59351942Y-131933752D01*
X59351942Y-132076609D01*
X59304323Y-132267085D01*
X59256704Y-132362323D01*
X59161466Y-132457561D01*
X59018609Y-132505180D01*
X58780514Y-132505180D01*
X59970990Y-131505180D02*
X60066228Y-131505180D01*
X60161466Y-131552800D01*
X60209085Y-131600419D01*
X60256704Y-131695657D01*
X60304323Y-131886133D01*
X60304323Y-132124228D01*
X60256704Y-132314704D01*
X60209085Y-132409942D01*
X60161466Y-132457561D01*
X60066228Y-132505180D01*
X59970990Y-132505180D01*
X59875752Y-132457561D01*
X59828133Y-132409942D01*
X59780514Y-132314704D01*
X59732895Y-132124228D01*
X59732895Y-131886133D01*
X59780514Y-131695657D01*
X59828133Y-131600419D01*
X59875752Y-131552800D01*
X59970990Y-131505180D01*
X61256704Y-132505180D02*
X60685276Y-132505180D01*
X60970990Y-132505180D02*
X60970990Y-131505180D01*
X60875752Y-131648038D01*
X60780514Y-131743276D01*
X60685276Y-131790895D01*
X53829080Y-117601619D02*
X53733842Y-117554000D01*
X53638604Y-117458761D01*
X53495747Y-117315904D01*
X53400509Y-117268285D01*
X53305271Y-117268285D01*
X53352890Y-117506380D02*
X53257652Y-117458761D01*
X53162414Y-117363523D01*
X53114795Y-117173047D01*
X53114795Y-116839714D01*
X53162414Y-116649238D01*
X53257652Y-116554000D01*
X53352890Y-116506380D01*
X53543366Y-116506380D01*
X53638604Y-116554000D01*
X53733842Y-116649238D01*
X53781461Y-116839714D01*
X53781461Y-117173047D01*
X53733842Y-117363523D01*
X53638604Y-117458761D01*
X53543366Y-117506380D01*
X53352890Y-117506380D01*
X54733842Y-117506380D02*
X54162414Y-117506380D01*
X54448128Y-117506380D02*
X54448128Y-116506380D01*
X54352890Y-116649238D01*
X54257652Y-116744476D01*
X54162414Y-116792095D01*
X55352890Y-116506380D02*
X55448128Y-116506380D01*
X55543366Y-116554000D01*
X55590985Y-116601619D01*
X55638604Y-116696857D01*
X55686223Y-116887333D01*
X55686223Y-117125428D01*
X55638604Y-117315904D01*
X55590985Y-117411142D01*
X55543366Y-117458761D01*
X55448128Y-117506380D01*
X55352890Y-117506380D01*
X55257652Y-117458761D01*
X55210033Y-117411142D01*
X55162414Y-117315904D01*
X55114795Y-117125428D01*
X55114795Y-116887333D01*
X55162414Y-116696857D01*
X55210033Y-116601619D01*
X55257652Y-116554000D01*
X55352890Y-116506380D01*
X56305271Y-116506380D02*
X56400509Y-116506380D01*
X56495747Y-116554000D01*
X56543366Y-116601619D01*
X56590985Y-116696857D01*
X56638604Y-116887333D01*
X56638604Y-117125428D01*
X56590985Y-117315904D01*
X56543366Y-117411142D01*
X56495747Y-117458761D01*
X56400509Y-117506380D01*
X56305271Y-117506380D01*
X56210033Y-117458761D01*
X56162414Y-117411142D01*
X56114795Y-117315904D01*
X56067176Y-117125428D01*
X56067176Y-116887333D01*
X56114795Y-116696857D01*
X56162414Y-116601619D01*
X56210033Y-116554000D01*
X56305271Y-116506380D01*
X61042680Y-114756819D02*
X60947442Y-114709200D01*
X60852204Y-114613961D01*
X60709347Y-114471104D01*
X60614109Y-114423485D01*
X60518871Y-114423485D01*
X60566490Y-114661580D02*
X60471252Y-114613961D01*
X60376014Y-114518723D01*
X60328395Y-114328247D01*
X60328395Y-113994914D01*
X60376014Y-113804438D01*
X60471252Y-113709200D01*
X60566490Y-113661580D01*
X60756966Y-113661580D01*
X60852204Y-113709200D01*
X60947442Y-113804438D01*
X60995061Y-113994914D01*
X60995061Y-114328247D01*
X60947442Y-114518723D01*
X60852204Y-114613961D01*
X60756966Y-114661580D01*
X60566490Y-114661580D01*
X61947442Y-114661580D02*
X61376014Y-114661580D01*
X61661728Y-114661580D02*
X61661728Y-113661580D01*
X61566490Y-113804438D01*
X61471252Y-113899676D01*
X61376014Y-113947295D01*
X62566490Y-113661580D02*
X62661728Y-113661580D01*
X62756966Y-113709200D01*
X62804585Y-113756819D01*
X62852204Y-113852057D01*
X62899823Y-114042533D01*
X62899823Y-114280628D01*
X62852204Y-114471104D01*
X62804585Y-114566342D01*
X62756966Y-114613961D01*
X62661728Y-114661580D01*
X62566490Y-114661580D01*
X62471252Y-114613961D01*
X62423633Y-114566342D01*
X62376014Y-114471104D01*
X62328395Y-114280628D01*
X62328395Y-114042533D01*
X62376014Y-113852057D01*
X62423633Y-113756819D01*
X62471252Y-113709200D01*
X62566490Y-113661580D01*
X63852204Y-114661580D02*
X63280776Y-114661580D01*
X63566490Y-114661580D02*
X63566490Y-113661580D01*
X63471252Y-113804438D01*
X63376014Y-113899676D01*
X63280776Y-113947295D01*
X44641592Y-112613362D02*
X44593973Y-112660981D01*
X44451116Y-112708600D01*
X44355878Y-112708600D01*
X44213020Y-112660981D01*
X44117782Y-112565743D01*
X44070163Y-112470505D01*
X44022544Y-112280029D01*
X44022544Y-112137172D01*
X44070163Y-111946696D01*
X44117782Y-111851458D01*
X44213020Y-111756220D01*
X44355878Y-111708600D01*
X44451116Y-111708600D01*
X44593973Y-111756220D01*
X44641592Y-111803839D01*
X45593973Y-112708600D02*
X45022544Y-112708600D01*
X45308259Y-112708600D02*
X45308259Y-111708600D01*
X45213020Y-111851458D01*
X45117782Y-111946696D01*
X45022544Y-111994315D01*
X46213020Y-111708600D02*
X46308259Y-111708600D01*
X46403497Y-111756220D01*
X46451116Y-111803839D01*
X46498735Y-111899077D01*
X46546354Y-112089553D01*
X46546354Y-112327648D01*
X46498735Y-112518124D01*
X46451116Y-112613362D01*
X46403497Y-112660981D01*
X46308259Y-112708600D01*
X46213020Y-112708600D01*
X46117782Y-112660981D01*
X46070163Y-112613362D01*
X46022544Y-112518124D01*
X45974925Y-112327648D01*
X45974925Y-112089553D01*
X46022544Y-111899077D01*
X46070163Y-111803839D01*
X46117782Y-111756220D01*
X46213020Y-111708600D01*
X47165401Y-111708600D02*
X47260640Y-111708600D01*
X47355878Y-111756220D01*
X47403497Y-111803839D01*
X47451116Y-111899077D01*
X47498735Y-112089553D01*
X47498735Y-112327648D01*
X47451116Y-112518124D01*
X47403497Y-112613362D01*
X47355878Y-112660981D01*
X47260640Y-112708600D01*
X47165401Y-112708600D01*
X47070163Y-112660981D01*
X47022544Y-112613362D01*
X46974925Y-112518124D01*
X46927306Y-112327648D01*
X46927306Y-112089553D01*
X46974925Y-111899077D01*
X47022544Y-111803839D01*
X47070163Y-111756220D01*
X47165401Y-111708600D01*
X54512380Y-109526247D02*
X54036190Y-109859580D01*
X54512380Y-110097676D02*
X53512380Y-110097676D01*
X53512380Y-109716723D01*
X53560000Y-109621485D01*
X53607619Y-109573866D01*
X53702857Y-109526247D01*
X53845714Y-109526247D01*
X53940952Y-109573866D01*
X53988571Y-109621485D01*
X54036190Y-109716723D01*
X54036190Y-110097676D01*
X53607619Y-109145295D02*
X53560000Y-109097676D01*
X53512380Y-109002438D01*
X53512380Y-108764342D01*
X53560000Y-108669104D01*
X53607619Y-108621485D01*
X53702857Y-108573866D01*
X53798095Y-108573866D01*
X53940952Y-108621485D01*
X54512380Y-109192914D01*
X54512380Y-108573866D01*
X53512380Y-107954819D02*
X53512380Y-107859580D01*
X53560000Y-107764342D01*
X53607619Y-107716723D01*
X53702857Y-107669104D01*
X53893333Y-107621485D01*
X54131428Y-107621485D01*
X54321904Y-107669104D01*
X54417142Y-107716723D01*
X54464761Y-107764342D01*
X54512380Y-107859580D01*
X54512380Y-107954819D01*
X54464761Y-108050057D01*
X54417142Y-108097676D01*
X54321904Y-108145295D01*
X54131428Y-108192914D01*
X53893333Y-108192914D01*
X53702857Y-108145295D01*
X53607619Y-108097676D01*
X53560000Y-108050057D01*
X53512380Y-107954819D01*
X53512380Y-107002438D02*
X53512380Y-106907200D01*
X53560000Y-106811961D01*
X53607619Y-106764342D01*
X53702857Y-106716723D01*
X53893333Y-106669104D01*
X54131428Y-106669104D01*
X54321904Y-106716723D01*
X54417142Y-106764342D01*
X54464761Y-106811961D01*
X54512380Y-106907200D01*
X54512380Y-107002438D01*
X54464761Y-107097676D01*
X54417142Y-107145295D01*
X54321904Y-107192914D01*
X54131428Y-107240533D01*
X53893333Y-107240533D01*
X53702857Y-107192914D01*
X53607619Y-107145295D01*
X53560000Y-107097676D01*
X53512380Y-107002438D01*
X61725980Y-106478247D02*
X61249790Y-106811580D01*
X61725980Y-107049676D02*
X60725980Y-107049676D01*
X60725980Y-106668723D01*
X60773600Y-106573485D01*
X60821219Y-106525866D01*
X60916457Y-106478247D01*
X61059314Y-106478247D01*
X61154552Y-106525866D01*
X61202171Y-106573485D01*
X61249790Y-106668723D01*
X61249790Y-107049676D01*
X60821219Y-106097295D02*
X60773600Y-106049676D01*
X60725980Y-105954438D01*
X60725980Y-105716342D01*
X60773600Y-105621104D01*
X60821219Y-105573485D01*
X60916457Y-105525866D01*
X61011695Y-105525866D01*
X61154552Y-105573485D01*
X61725980Y-106144914D01*
X61725980Y-105525866D01*
X60725980Y-104906819D02*
X60725980Y-104811580D01*
X60773600Y-104716342D01*
X60821219Y-104668723D01*
X60916457Y-104621104D01*
X61106933Y-104573485D01*
X61345028Y-104573485D01*
X61535504Y-104621104D01*
X61630742Y-104668723D01*
X61678361Y-104716342D01*
X61725980Y-104811580D01*
X61725980Y-104906819D01*
X61678361Y-105002057D01*
X61630742Y-105049676D01*
X61535504Y-105097295D01*
X61345028Y-105144914D01*
X61106933Y-105144914D01*
X60916457Y-105097295D01*
X60821219Y-105049676D01*
X60773600Y-105002057D01*
X60725980Y-104906819D01*
X61725980Y-103621104D02*
X61725980Y-104192533D01*
X61725980Y-103906819D02*
X60725980Y-103906819D01*
X60868838Y-104002057D01*
X60964076Y-104097295D01*
X61011695Y-104192533D01*
X59231352Y-117199580D02*
X58898019Y-116723390D01*
X58659923Y-117199580D02*
X58659923Y-116199580D01*
X59040876Y-116199580D01*
X59136114Y-116247200D01*
X59183733Y-116294819D01*
X59231352Y-116390057D01*
X59231352Y-116532914D01*
X59183733Y-116628152D01*
X59136114Y-116675771D01*
X59040876Y-116723390D01*
X58659923Y-116723390D01*
X59612304Y-116294819D02*
X59659923Y-116247200D01*
X59755161Y-116199580D01*
X59993257Y-116199580D01*
X60088495Y-116247200D01*
X60136114Y-116294819D01*
X60183733Y-116390057D01*
X60183733Y-116485295D01*
X60136114Y-116628152D01*
X59564685Y-117199580D01*
X60183733Y-117199580D01*
X60802780Y-116199580D02*
X60898019Y-116199580D01*
X60993257Y-116247200D01*
X61040876Y-116294819D01*
X61088495Y-116390057D01*
X61136114Y-116580533D01*
X61136114Y-116818628D01*
X61088495Y-117009104D01*
X61040876Y-117104342D01*
X60993257Y-117151961D01*
X60898019Y-117199580D01*
X60802780Y-117199580D01*
X60707542Y-117151961D01*
X60659923Y-117104342D01*
X60612304Y-117009104D01*
X60564685Y-116818628D01*
X60564685Y-116580533D01*
X60612304Y-116390057D01*
X60659923Y-116294819D01*
X60707542Y-116247200D01*
X60802780Y-116199580D01*
X61517066Y-116294819D02*
X61564685Y-116247200D01*
X61659923Y-116199580D01*
X61898019Y-116199580D01*
X61993257Y-116247200D01*
X62040876Y-116294819D01*
X62088495Y-116390057D01*
X62088495Y-116485295D01*
X62040876Y-116628152D01*
X61469447Y-117199580D01*
X62088495Y-117199580D01*
X58113752Y-93374380D02*
X57780419Y-92898190D01*
X57542323Y-93374380D02*
X57542323Y-92374380D01*
X57923276Y-92374380D01*
X58018514Y-92422000D01*
X58066133Y-92469619D01*
X58113752Y-92564857D01*
X58113752Y-92707714D01*
X58066133Y-92802952D01*
X58018514Y-92850571D01*
X57923276Y-92898190D01*
X57542323Y-92898190D01*
X58494704Y-92469619D02*
X58542323Y-92422000D01*
X58637561Y-92374380D01*
X58875657Y-92374380D01*
X58970895Y-92422000D01*
X59018514Y-92469619D01*
X59066133Y-92564857D01*
X59066133Y-92660095D01*
X59018514Y-92802952D01*
X58447085Y-93374380D01*
X59066133Y-93374380D01*
X59685180Y-92374380D02*
X59780419Y-92374380D01*
X59875657Y-92422000D01*
X59923276Y-92469619D01*
X59970895Y-92564857D01*
X60018514Y-92755333D01*
X60018514Y-92993428D01*
X59970895Y-93183904D01*
X59923276Y-93279142D01*
X59875657Y-93326761D01*
X59780419Y-93374380D01*
X59685180Y-93374380D01*
X59589942Y-93326761D01*
X59542323Y-93279142D01*
X59494704Y-93183904D01*
X59447085Y-92993428D01*
X59447085Y-92755333D01*
X59494704Y-92564857D01*
X59542323Y-92469619D01*
X59589942Y-92422000D01*
X59685180Y-92374380D01*
X60351847Y-92374380D02*
X60970895Y-92374380D01*
X60637561Y-92755333D01*
X60780419Y-92755333D01*
X60875657Y-92802952D01*
X60923276Y-92850571D01*
X60970895Y-92945809D01*
X60970895Y-93183904D01*
X60923276Y-93279142D01*
X60875657Y-93326761D01*
X60780419Y-93374380D01*
X60494704Y-93374380D01*
X60399466Y-93326761D01*
X60351847Y-93279142D01*
X78840152Y-83471942D02*
X78792533Y-83519561D01*
X78649676Y-83567180D01*
X78554438Y-83567180D01*
X78411580Y-83519561D01*
X78316342Y-83424323D01*
X78268723Y-83329085D01*
X78221104Y-83138609D01*
X78221104Y-82995752D01*
X78268723Y-82805276D01*
X78316342Y-82710038D01*
X78411580Y-82614800D01*
X78554438Y-82567180D01*
X78649676Y-82567180D01*
X78792533Y-82614800D01*
X78840152Y-82662419D01*
X79792533Y-83567180D02*
X79221104Y-83567180D01*
X79506819Y-83567180D02*
X79506819Y-82567180D01*
X79411580Y-82710038D01*
X79316342Y-82805276D01*
X79221104Y-82852895D01*
X80411580Y-82567180D02*
X80506819Y-82567180D01*
X80602057Y-82614800D01*
X80649676Y-82662419D01*
X80697295Y-82757657D01*
X80744914Y-82948133D01*
X80744914Y-83186228D01*
X80697295Y-83376704D01*
X80649676Y-83471942D01*
X80602057Y-83519561D01*
X80506819Y-83567180D01*
X80411580Y-83567180D01*
X80316342Y-83519561D01*
X80268723Y-83471942D01*
X80221104Y-83376704D01*
X80173485Y-83186228D01*
X80173485Y-82948133D01*
X80221104Y-82757657D01*
X80268723Y-82662419D01*
X80316342Y-82614800D01*
X80411580Y-82567180D01*
X81697295Y-83567180D02*
X81125866Y-83567180D01*
X81411580Y-83567180D02*
X81411580Y-82567180D01*
X81316342Y-82710038D01*
X81221104Y-82805276D01*
X81125866Y-82852895D01*
X92181561Y-86638780D02*
X91705371Y-86638780D01*
X91705371Y-85638780D01*
X92514895Y-86114971D02*
X92848228Y-86114971D01*
X92991085Y-86638780D02*
X92514895Y-86638780D01*
X92514895Y-85638780D01*
X92991085Y-85638780D01*
X93419657Y-86638780D02*
X93419657Y-85638780D01*
X93657752Y-85638780D01*
X93800609Y-85686400D01*
X93895847Y-85781638D01*
X93943466Y-85876876D01*
X93991085Y-86067352D01*
X93991085Y-86210209D01*
X93943466Y-86400685D01*
X93895847Y-86495923D01*
X93800609Y-86591161D01*
X93657752Y-86638780D01*
X93419657Y-86638780D01*
X94943466Y-86638780D02*
X94372038Y-86638780D01*
X94657752Y-86638780D02*
X94657752Y-85638780D01*
X94562514Y-85781638D01*
X94467276Y-85876876D01*
X94372038Y-85924495D01*
X95562514Y-85638780D02*
X95657752Y-85638780D01*
X95752990Y-85686400D01*
X95800609Y-85734019D01*
X95848228Y-85829257D01*
X95895847Y-86019733D01*
X95895847Y-86257828D01*
X95848228Y-86448304D01*
X95800609Y-86543542D01*
X95752990Y-86591161D01*
X95657752Y-86638780D01*
X95562514Y-86638780D01*
X95467276Y-86591161D01*
X95419657Y-86543542D01*
X95372038Y-86448304D01*
X95324419Y-86257828D01*
X95324419Y-86019733D01*
X95372038Y-85829257D01*
X95419657Y-85734019D01*
X95467276Y-85686400D01*
X95562514Y-85638780D01*
X92181561Y-91007580D02*
X91705371Y-91007580D01*
X91705371Y-90007580D01*
X92514895Y-90483771D02*
X92848228Y-90483771D01*
X92991085Y-91007580D02*
X92514895Y-91007580D01*
X92514895Y-90007580D01*
X92991085Y-90007580D01*
X93419657Y-91007580D02*
X93419657Y-90007580D01*
X93657752Y-90007580D01*
X93800609Y-90055200D01*
X93895847Y-90150438D01*
X93943466Y-90245676D01*
X93991085Y-90436152D01*
X93991085Y-90579009D01*
X93943466Y-90769485D01*
X93895847Y-90864723D01*
X93800609Y-90959961D01*
X93657752Y-91007580D01*
X93419657Y-91007580D01*
X94943466Y-91007580D02*
X94372038Y-91007580D01*
X94657752Y-91007580D02*
X94657752Y-90007580D01*
X94562514Y-90150438D01*
X94467276Y-90245676D01*
X94372038Y-90293295D01*
X95895847Y-91007580D02*
X95324419Y-91007580D01*
X95610133Y-91007580D02*
X95610133Y-90007580D01*
X95514895Y-90150438D01*
X95419657Y-90245676D01*
X95324419Y-90293295D01*
X247823219Y-135043980D02*
X247823219Y-134043980D01*
X248870838Y-134948742D02*
X248823219Y-134996361D01*
X248680361Y-135043980D01*
X248585123Y-135043980D01*
X248442266Y-134996361D01*
X248347028Y-134901123D01*
X248299409Y-134805885D01*
X248251790Y-134615409D01*
X248251790Y-134472552D01*
X248299409Y-134282076D01*
X248347028Y-134186838D01*
X248442266Y-134091600D01*
X248585123Y-134043980D01*
X248680361Y-134043980D01*
X248823219Y-134091600D01*
X248870838Y-134139219D01*
X249489885Y-134043980D02*
X249585123Y-134043980D01*
X249680361Y-134091600D01*
X249727980Y-134139219D01*
X249775600Y-134234457D01*
X249823219Y-134424933D01*
X249823219Y-134663028D01*
X249775600Y-134853504D01*
X249727980Y-134948742D01*
X249680361Y-134996361D01*
X249585123Y-135043980D01*
X249489885Y-135043980D01*
X249394647Y-134996361D01*
X249347028Y-134948742D01*
X249299409Y-134853504D01*
X249251790Y-134663028D01*
X249251790Y-134424933D01*
X249299409Y-134234457D01*
X249347028Y-134139219D01*
X249394647Y-134091600D01*
X249489885Y-134043980D01*
X250204171Y-134139219D02*
X250251790Y-134091600D01*
X250347028Y-134043980D01*
X250585123Y-134043980D01*
X250680361Y-134091600D01*
X250727980Y-134139219D01*
X250775600Y-134234457D01*
X250775600Y-134329695D01*
X250727980Y-134472552D01*
X250156552Y-135043980D01*
X250775600Y-135043980D01*
X294249980Y-100629838D02*
X294249980Y-101106028D01*
X293249980Y-101106028D01*
X293726171Y-100296504D02*
X293726171Y-99963171D01*
X294249980Y-99820314D02*
X294249980Y-100296504D01*
X293249980Y-100296504D01*
X293249980Y-99820314D01*
X294249980Y-99391742D02*
X293249980Y-99391742D01*
X293249980Y-99153647D01*
X293297600Y-99010790D01*
X293392838Y-98915552D01*
X293488076Y-98867933D01*
X293678552Y-98820314D01*
X293821409Y-98820314D01*
X294011885Y-98867933D01*
X294107123Y-98915552D01*
X294202361Y-99010790D01*
X294249980Y-99153647D01*
X294249980Y-99391742D01*
X293345219Y-98439361D02*
X293297600Y-98391742D01*
X293249980Y-98296504D01*
X293249980Y-98058409D01*
X293297600Y-97963171D01*
X293345219Y-97915552D01*
X293440457Y-97867933D01*
X293535695Y-97867933D01*
X293678552Y-97915552D01*
X294249980Y-98486980D01*
X294249980Y-97867933D01*
X293249980Y-97248885D02*
X293249980Y-97153647D01*
X293297600Y-97058409D01*
X293345219Y-97010790D01*
X293440457Y-96963171D01*
X293630933Y-96915552D01*
X293869028Y-96915552D01*
X294059504Y-96963171D01*
X294154742Y-97010790D01*
X294202361Y-97058409D01*
X294249980Y-97153647D01*
X294249980Y-97248885D01*
X294202361Y-97344123D01*
X294154742Y-97391742D01*
X294059504Y-97439361D01*
X293869028Y-97486980D01*
X293630933Y-97486980D01*
X293440457Y-97439361D01*
X293345219Y-97391742D01*
X293297600Y-97344123D01*
X293249980Y-97248885D01*
X310455180Y-100636438D02*
X310455180Y-101112628D01*
X309455180Y-101112628D01*
X309931371Y-100303104D02*
X309931371Y-99969771D01*
X310455180Y-99826914D02*
X310455180Y-100303104D01*
X309455180Y-100303104D01*
X309455180Y-99826914D01*
X310455180Y-99398342D02*
X309455180Y-99398342D01*
X309455180Y-99160247D01*
X309502800Y-99017390D01*
X309598038Y-98922152D01*
X309693276Y-98874533D01*
X309883752Y-98826914D01*
X310026609Y-98826914D01*
X310217085Y-98874533D01*
X310312323Y-98922152D01*
X310407561Y-99017390D01*
X310455180Y-99160247D01*
X310455180Y-99398342D01*
X309550419Y-98445961D02*
X309502800Y-98398342D01*
X309455180Y-98303104D01*
X309455180Y-98065009D01*
X309502800Y-97969771D01*
X309550419Y-97922152D01*
X309645657Y-97874533D01*
X309740895Y-97874533D01*
X309883752Y-97922152D01*
X310455180Y-98493580D01*
X310455180Y-97874533D01*
X310455180Y-96922152D02*
X310455180Y-97493580D01*
X310455180Y-97207866D02*
X309455180Y-97207866D01*
X309598038Y-97303104D01*
X309693276Y-97398342D01*
X309740895Y-97493580D01*
X264093361Y-89324180D02*
X264664790Y-89324180D01*
X264379076Y-90324180D02*
X264379076Y-89324180D01*
X264998123Y-89800371D02*
X265331457Y-89800371D01*
X265474314Y-90324180D02*
X264998123Y-90324180D01*
X264998123Y-89324180D01*
X265474314Y-89324180D01*
X265855266Y-90276561D02*
X265998123Y-90324180D01*
X266236219Y-90324180D01*
X266331457Y-90276561D01*
X266379076Y-90228942D01*
X266426695Y-90133704D01*
X266426695Y-90038466D01*
X266379076Y-89943228D01*
X266331457Y-89895609D01*
X266236219Y-89847990D01*
X266045742Y-89800371D01*
X265950504Y-89752752D01*
X265902885Y-89705133D01*
X265855266Y-89609895D01*
X265855266Y-89514657D01*
X265902885Y-89419419D01*
X265950504Y-89371800D01*
X266045742Y-89324180D01*
X266283838Y-89324180D01*
X266426695Y-89371800D01*
X266712409Y-89324180D02*
X267283838Y-89324180D01*
X266998123Y-90324180D02*
X266998123Y-89324180D01*
M02*
